<svg width="189" height="37" viewBox="0 0 189 37" fill="none" xmlns="http://www.w3.org/2000/svg">
<path d="M0.5 26.525C0.223858 26.525 0 26.3011 0 26.025V14.9C0 13.7 0.15 12.7083 0.45 11.925C0.766667 11.125 1.23333 10.5417 1.85 10.175C2.46667 9.79167 3.10833 9.50833 3.775 9.325C4.45833 9.14167 5.16667 9.05 5.9 9.05L8.45 9H8.95C9.22614 9 9.45 9.22386 9.45 9.5V10.675C9.45 10.9511 9.22614 11.175 8.95 11.175H7.1C6.55 11.2083 6.05 11.2917 5.6 11.425C5.15 11.5417 4.75 11.7167 4.4 11.95C4.05 12.1833 3.78333 12.525 3.6 12.975C3.43333 13.4083 3.35 13.9417 3.35 14.575V16.175C3.35 16.4511 3.57386 16.675 3.85 16.675H8.95C9.22614 16.675 9.45 16.8989 9.45 17.175V18.35C9.45 18.6261 9.22614 18.85 8.95 18.85H3.85C3.57386 18.85 3.35 19.0739 3.35 19.35V26.025C3.35 26.3011 3.12614 26.525 2.85 26.525H0.5Z" fill="#6DABAA"/>
<path d="M21.3695 26.525C21.0934 26.525 20.8695 26.3011 20.8695 26.025V19.625C20.8695 19.2583 20.7945 18.9 20.6445 18.55C20.5112 18.1833 20.3029 17.8417 20.0195 17.525C19.7862 17.2417 19.4695 17.025 19.0695 16.875C18.6695 16.7083 18.1862 16.6 17.6195 16.55C17.6181 16.55 17.6165 16.5501 17.6149 16.5502C17.5657 16.5542 17.5189 16.575 17.4695 16.575C17.4458 16.575 17.422 16.5769 17.3982 16.5806C17.3452 16.5891 17.2919 16.5994 17.2391 16.6095C17.2184 16.6134 17.1952 16.6186 17.1695 16.625C17.0195 16.6417 16.8695 16.675 16.7195 16.725C16.5695 16.775 16.4195 16.8417 16.2695 16.925C16.0029 17.0417 15.7445 17.2083 15.4945 17.425C15.2445 17.625 15.0029 17.8667 14.7695 18.15C14.5529 18.4167 14.3779 18.75 14.2445 19.15C14.1112 19.5333 14.0279 19.975 13.9945 20.475C13.9945 21.1417 14.0862 21.725 14.2695 22.225C14.4529 22.7083 14.7279 23.1167 15.0945 23.45C15.4779 23.7667 15.8695 24.025 16.2695 24.225C16.6667 24.3998 17.079 24.5139 17.5065 24.5675C17.5483 24.5728 17.5907 24.572 17.6324 24.5659C17.7108 24.5544 17.7853 24.5429 17.8558 24.5314C17.8816 24.5272 17.907 24.5209 17.9317 24.5126C18.0193 24.4834 18.1069 24.4542 18.1945 24.425C18.2779 24.3917 18.3529 24.3583 18.4195 24.325C18.4824 24.2999 18.5453 24.2747 18.6081 24.2496C18.6489 24.2333 18.6871 24.2114 18.723 24.1861C18.7756 24.1491 18.8328 24.112 18.8945 24.075C18.9597 24.0359 19.0198 23.9917 19.0748 23.9423C19.1053 23.915 19.1375 23.8898 19.1715 23.867C19.2343 23.8248 19.292 23.7775 19.3445 23.725C19.4279 23.6417 19.5112 23.5667 19.5945 23.5C19.6779 23.4167 19.7612 23.3417 19.8445 23.275C19.8808 23.2388 19.917 23.2025 19.9532 23.1663C20.0439 23.0756 20.166 23.0232 20.2943 23.02L20.582 23.0128C20.863 23.0058 21.0945 23.2316 21.0945 23.5127V25.7146C21.0945 25.7373 21.0855 25.759 21.0695 25.775L21.0525 25.792C21.0474 25.7971 21.0445 25.8041 21.0445 25.8113C21.0445 25.8199 21.0405 25.828 21.0336 25.8332C20.8369 25.9799 20.6322 26.1105 20.4195 26.225C20.2029 26.325 19.9779 26.4167 19.7445 26.5C19.5112 26.5667 19.2279 26.6167 18.8945 26.65C18.5612 26.7 18.1779 26.725 17.7445 26.725H16.4195C15.6529 26.725 14.9362 26.5917 14.2695 26.325C13.6195 26.0417 13.0195 25.6167 12.4695 25.05C11.9195 24.4667 11.5029 23.8 11.2195 23.05C10.9529 22.2833 10.8195 21.425 10.8195 20.475C10.8195 19.6417 10.9529 18.8667 11.2195 18.15C11.4862 17.4333 11.8862 16.775 12.4195 16.175C12.9529 15.575 13.6112 15.125 14.3945 14.825C15.1779 14.525 16.0862 14.375 17.1195 14.375L18.1195 14.35C19.1029 14.3667 19.9779 14.5083 20.7445 14.775C21.5112 15.0417 22.1529 15.4417 22.6695 15.975C23.2029 16.5083 23.5945 17.075 23.8445 17.675C24.1112 18.2583 24.2445 18.8667 24.2445 19.5V26.025C24.2445 26.3011 24.0207 26.525 23.7445 26.525H21.3695Z" fill="#6DABAA"/>
<path d="M29.0695 14.525C29.1197 14.525 29.1604 14.5657 29.1604 14.6158C29.1604 14.6801 29.2254 14.7238 29.2814 14.6924C29.3181 14.672 29.3527 14.6495 29.3854 14.625C29.4687 14.575 29.552 14.5333 29.6354 14.5C29.8354 14.4 30.0604 14.325 30.3104 14.275C30.5604 14.2083 30.827 14.175 31.1104 14.175L31.9104 14.125H32.4104C32.6865 14.125 32.9104 14.3489 32.9104 14.625V15.8C32.9104 16.0761 32.6865 16.3 32.4104 16.3H32.3546C32.3252 16.3 32.2958 16.3026 32.2668 16.3079C31.8187 16.3912 31.4333 16.5135 31.1104 16.675C30.777 16.8417 30.4937 17.05 30.2604 17.3C30.0437 17.55 29.8604 17.8167 29.7104 18.1C29.577 18.3667 29.4687 18.6417 29.3854 18.925C29.3187 19.1417 29.2687 19.35 29.2354 19.55C29.202 19.75 29.1854 19.9417 29.1854 20.125C29.1687 20.325 29.1604 20.5 29.1604 20.65C29.1604 20.8 29.1604 20.9417 29.1604 21.075V26.025C29.1604 26.3011 28.9365 26.525 28.6604 26.525H26.4854C26.2092 26.525 25.9854 26.3011 25.9854 26.025V15.025C25.9854 14.7489 26.2092 14.525 26.4854 14.525H29.0695Z" fill="#6DABAA"/>
<path d="M44.2455 26.525C43.9694 26.525 43.7455 26.3011 43.7455 26.025V19.625C43.7455 19.2583 43.6705 18.9 43.5205 18.55C43.3872 18.1833 43.1788 17.8417 42.8955 17.525C42.6622 17.2417 42.3455 17.025 41.9455 16.875C41.5455 16.7083 41.0622 16.6 40.4955 16.55C40.494 16.55 40.4925 16.5501 40.4909 16.5502C40.4417 16.5542 40.3948 16.575 40.3455 16.575C40.3217 16.575 40.298 16.5769 40.2742 16.5806C40.2211 16.5891 40.1678 16.5994 40.115 16.6095C40.0943 16.6134 40.0712 16.6186 40.0455 16.625C39.8955 16.6417 39.7455 16.675 39.5955 16.725C39.4455 16.775 39.2955 16.8417 39.1455 16.925C38.8788 17.0417 38.6205 17.2083 38.3705 17.425C38.1205 17.625 37.8788 17.8667 37.6455 18.15C37.4288 18.4167 37.2538 18.75 37.1205 19.15C36.9872 19.5333 36.9038 19.975 36.8705 20.475C36.8705 21.1417 36.9622 21.725 37.1455 22.225C37.3288 22.7083 37.6038 23.1167 37.9705 23.45C38.3538 23.7667 38.7455 24.025 39.1455 24.225C39.5427 24.3998 39.955 24.5139 40.3825 24.5675C40.4243 24.5728 40.4666 24.572 40.5083 24.5659C40.5868 24.5544 40.6613 24.5429 40.7318 24.5314C40.7576 24.5272 40.783 24.5209 40.8077 24.5126C40.8953 24.4834 40.9829 24.4542 41.0705 24.425C41.1538 24.3917 41.2288 24.3583 41.2955 24.325C41.3584 24.2999 41.4212 24.2747 41.4841 24.2496C41.5249 24.2333 41.5631 24.2114 41.599 24.1861C41.6516 24.1491 41.7088 24.112 41.7705 24.075C41.8357 24.0359 41.8958 23.9917 41.9508 23.9423C41.9813 23.915 42.0135 23.8898 42.0475 23.867C42.1103 23.8248 42.168 23.7775 42.2205 23.725C42.3038 23.6417 42.3872 23.5667 42.4705 23.5C42.5538 23.4167 42.6372 23.3417 42.7205 23.275C42.7567 23.2388 42.793 23.2025 42.8292 23.1663C42.9199 23.0756 43.042 23.0232 43.1703 23.02L43.458 23.0128C43.739 23.0058 43.9705 23.2316 43.9705 23.5127V25.7146C43.9705 25.7373 43.9615 25.759 43.9455 25.775L43.9285 25.792C43.9234 25.7971 43.9205 25.8041 43.9205 25.8113C43.9205 25.8199 43.9165 25.828 43.9096 25.8332C43.7129 25.9799 43.5082 26.1105 43.2955 26.225C43.0788 26.325 42.8538 26.4167 42.6205 26.5C42.3872 26.5667 42.1038 26.6167 41.7705 26.65C41.4372 26.7 41.0538 26.725 40.6205 26.725H39.2955C38.5288 26.725 37.8122 26.5917 37.1455 26.325C36.4955 26.0417 35.8955 25.6167 35.3455 25.05C34.7955 24.4667 34.3788 23.8 34.0955 23.05C33.8288 22.2833 33.6955 21.425 33.6955 20.475C33.6955 19.6417 33.8288 18.8667 34.0955 18.15C34.3622 17.4333 34.7622 16.775 35.2955 16.175C35.8288 15.575 36.4872 15.125 37.2705 14.825C38.0538 14.525 38.9622 14.375 39.9955 14.375L40.9955 14.35C41.9788 14.3667 42.8538 14.5083 43.6205 14.775C44.3872 15.0417 45.0288 15.4417 45.5455 15.975C46.0788 16.5083 46.4705 17.075 46.7205 17.675C46.9872 18.2583 47.1205 18.8667 47.1205 19.5V26.025C47.1205 26.3011 46.8967 26.525 46.6205 26.525H44.2455Z" fill="#6DABAA"/>
<path d="M49.7613 26.525C49.4852 26.525 49.2613 26.3011 49.2613 26.025V19.25C49.2613 18.5833 49.378 17.9583 49.6113 17.375C49.8447 16.775 50.1947 16.2167 50.6613 15.7C51.1447 15.2 51.7113 14.825 52.3613 14.575C53.0113 14.3083 53.753 14.175 54.5863 14.175L55.5489 14.1509C55.5738 14.1503 55.5987 14.1516 55.6235 14.1546C55.7459 14.1697 55.8752 14.1849 56.0113 14.2C56.178 14.2167 56.353 14.2417 56.5363 14.275C56.7197 14.3083 56.903 14.35 57.0863 14.4C57.2863 14.45 57.4863 14.5167 57.6863 14.6C58.0363 14.75 58.3697 14.9417 58.6863 15.175C59.003 15.4083 59.3113 15.6917 59.6113 16.025C59.9113 16.3417 60.1363 16.7333 60.2863 17.2C60.4363 17.6667 60.5113 18.2 60.5113 18.8V26.025C60.5113 26.3011 60.2875 26.525 60.0113 26.525H57.6363C57.3602 26.525 57.1363 26.3011 57.1363 26.025V19.45C57.1363 19.0833 57.078 18.725 56.9613 18.375C56.8613 18.0083 56.703 17.6667 56.4863 17.35C56.3197 17.0833 56.103 16.8667 55.8363 16.7C55.5875 16.5445 55.2951 16.4397 54.9591 16.3858C54.9109 16.3781 54.8618 16.3786 54.8138 16.3874C54.525 16.4407 54.2575 16.5365 54.0113 16.675C53.7447 16.825 53.5113 17.0167 53.3113 17.25C53.0613 17.55 52.8613 17.875 52.7113 18.225C52.578 18.5583 52.4863 18.9167 52.4363 19.3V26.025C52.4363 26.3011 52.2125 26.525 51.9363 26.525H49.7613Z" fill="#6DABAA"/>
<path d="M62.26 20.225C62.26 19.3083 62.4183 18.4833 62.735 17.75C63.0516 17.0167 63.5183 16.375 64.135 15.825C64.7683 15.275 65.435 14.8667 66.135 14.6C66.8516 14.3167 67.6016 14.175 68.385 14.175L69.281 14.1526C69.3493 14.1509 69.4167 14.175 69.485 14.175C69.4921 14.175 69.4991 14.175 69.506 14.175C69.5744 14.175 69.6416 14.2 69.71 14.2C69.76 14.2 69.81 14.2 69.86 14.2C69.8933 14.2 69.9266 14.2 69.96 14.2C69.9753 14.2 69.9906 14.2 70.0059 14.2C70.0743 14.2 70.1416 14.225 70.21 14.225C70.2428 14.225 70.272 14.225 70.2977 14.225C70.3225 14.225 70.3473 14.2268 70.3718 14.2306C71.025 14.3324 71.646 14.5305 72.235 14.825C72.8516 15.1083 73.4433 15.4917 74.01 15.975C74.56 16.475 74.9766 17.1 75.26 17.85C75.5433 18.6 75.685 19.475 75.685 20.475C75.685 20.5417 75.685 20.6083 75.685 20.675C75.685 20.7092 75.6828 20.7413 75.6784 20.7711C75.6705 20.8243 75.6613 20.8775 75.6559 20.931C75.6539 20.9506 75.6512 20.9702 75.6478 20.9898C75.6407 21.0301 75.635 21.0707 75.635 21.1116C75.635 21.1577 75.635 21.2039 75.635 21.25C75.6183 21.3833 75.5933 21.5167 75.56 21.65C75.5433 21.7833 75.5183 21.9167 75.485 22.05C75.335 22.65 75.1016 23.225 74.785 23.775C74.485 24.3083 74.0933 24.8167 73.61 25.3C73.1433 25.7833 72.585 26.1417 71.935 26.375C71.285 26.6083 70.56 26.725 69.76 26.725H68.76C67.6266 26.725 66.6433 26.575 65.81 26.275C64.9933 25.9583 64.3266 25.4833 63.81 24.85C63.2933 24.2167 62.9016 23.5167 62.635 22.75C62.385 21.9833 62.26 21.1583 62.26 20.275V20.225ZM65.635 20.225C65.635 20.3583 65.635 20.4833 65.635 20.6C65.635 20.7 65.6433 20.8083 65.66 20.925C65.6745 21.0268 65.689 21.1286 65.7036 21.2304C65.7078 21.2601 65.7149 21.2893 65.7236 21.318C65.7502 21.4058 65.7707 21.4998 65.785 21.6C65.8683 21.9667 66.0016 22.325 66.185 22.675C66.3683 23.025 66.5933 23.3583 66.86 23.675C67.0933 23.9417 67.3766 24.15 67.71 24.3C68.0336 24.4456 68.4044 24.5363 68.8223 24.5719C68.8474 24.5741 68.8726 24.5741 68.8976 24.5721C69.3332 24.5365 69.7373 24.4458 70.11 24.3C70.4933 24.15 70.8433 23.95 71.16 23.7C71.5433 23.4 71.8266 22.9667 72.01 22.4C72.21 21.8167 72.31 21.1083 72.31 20.275C72.31 19.6917 72.2266 19.1667 72.06 18.7C71.8933 18.2167 71.6433 17.7917 71.31 17.425C71.0266 17.125 70.6766 16.8833 70.26 16.7C69.86 16.5167 69.4016 16.4083 68.885 16.375C68.4183 16.4083 68.0016 16.5083 67.635 16.675C67.285 16.825 66.9933 17.0417 66.76 17.325C66.4766 17.6417 66.2433 17.9833 66.06 18.35C65.8933 18.7167 65.7766 19.0917 65.71 19.475C65.6933 19.5417 65.6766 19.6083 65.66 19.675C65.6433 19.7417 65.635 19.8083 65.635 19.875C65.635 19.925 65.635 19.975 65.635 20.025C65.635 20.0583 65.635 20.0917 65.635 20.125C65.635 20.1417 65.635 20.1667 65.635 20.2C65.635 20.2167 65.635 20.2333 65.635 20.25V20.225Z" fill="#6DABAA"/>
<path d="M77.2258 20.225C77.2258 19.3083 77.3841 18.4833 77.7008 17.75C78.0174 17.0167 78.4841 16.375 79.1008 15.825C79.7341 15.275 80.4008 14.8667 81.1008 14.6C81.8175 14.3167 82.5675 14.175 83.3508 14.175L84.2468 14.1526C84.3151 14.1509 84.3825 14.175 84.4508 14.175C84.4579 14.175 84.4649 14.175 84.4718 14.175C84.5402 14.175 84.6074 14.2 84.6758 14.2C84.7258 14.2 84.7758 14.2 84.8258 14.2C84.8591 14.2 84.8924 14.2 84.9258 14.2C84.9411 14.2 84.9564 14.2 84.9718 14.2C85.0402 14.2 85.1074 14.225 85.1758 14.225C85.2086 14.225 85.2378 14.225 85.2635 14.225C85.2883 14.225 85.3131 14.2268 85.3377 14.2306C85.9908 14.3324 86.6119 14.5305 87.2008 14.825C87.8175 15.1083 88.4091 15.4917 88.9758 15.975C89.5258 16.475 89.9425 17.1 90.2258 17.85C90.5091 18.6 90.6508 19.475 90.6508 20.475C90.6508 20.5417 90.6508 20.6083 90.6508 20.675C90.6508 20.7092 90.6486 20.7413 90.6442 20.7711C90.6364 20.8243 90.6271 20.8775 90.6217 20.931C90.6197 20.9506 90.617 20.9702 90.6136 20.9898C90.6065 21.0301 90.6008 21.0707 90.6008 21.1116C90.6008 21.1577 90.6008 21.2039 90.6008 21.25C90.5841 21.3833 90.5591 21.5167 90.5258 21.65C90.5091 21.7833 90.4841 21.9167 90.4508 22.05C90.3008 22.65 90.0674 23.225 89.7508 23.775C89.4508 24.3083 89.0591 24.8167 88.5758 25.3C88.1091 25.7833 87.5508 26.1417 86.9008 26.375C86.2508 26.6083 85.5258 26.725 84.7258 26.725H83.7258C82.5925 26.725 81.6091 26.575 80.7758 26.275C79.9591 25.9583 79.2924 25.4833 78.7758 24.85C78.2591 24.2167 77.8675 23.5167 77.6008 22.75C77.3508 21.9833 77.2258 21.1583 77.2258 20.275V20.225ZM80.6008 20.225C80.6008 20.3583 80.6008 20.4833 80.6008 20.6C80.6008 20.7 80.6091 20.8083 80.6258 20.925C80.6403 21.0268 80.6549 21.1286 80.6694 21.2304C80.6736 21.2601 80.6807 21.2893 80.6894 21.318C80.716 21.4058 80.7365 21.4998 80.7508 21.6C80.8341 21.9667 80.9674 22.325 81.1508 22.675C81.3341 23.025 81.5591 23.3583 81.8258 23.675C82.0591 23.9417 82.3424 24.15 82.6758 24.3C82.9994 24.4456 83.3702 24.5363 83.7881 24.5719C83.8132 24.5741 83.8384 24.5741 83.8634 24.5721C84.299 24.5365 84.7032 24.4458 85.0758 24.3C85.4591 24.15 85.8091 23.95 86.1258 23.7C86.5091 23.4 86.7924 22.9667 86.9758 22.4C87.1758 21.8167 87.2758 21.1083 87.2758 20.275C87.2758 19.6917 87.1924 19.1667 87.0258 18.7C86.8591 18.2167 86.6091 17.7917 86.2758 17.425C85.9924 17.125 85.6424 16.8833 85.2258 16.7C84.8258 16.5167 84.3675 16.4083 83.8508 16.375C83.3841 16.4083 82.9675 16.5083 82.6008 16.675C82.2508 16.825 81.9591 17.0417 81.7258 17.325C81.4425 17.6417 81.2091 17.9833 81.0258 18.35C80.8591 18.7167 80.7424 19.0917 80.6758 19.475C80.6591 19.5417 80.6424 19.6083 80.6258 19.675C80.6091 19.7417 80.6008 19.8083 80.6008 19.875C80.6008 19.925 80.6008 19.975 80.6008 20.025C80.6008 20.0583 80.6008 20.0917 80.6008 20.125C80.6008 20.1417 80.6008 20.1667 80.6008 20.2C80.6008 20.2167 80.6008 20.2333 80.6008 20.25V20.225Z" fill="#6DABAA"/>
<path d="M95.4758 14.525C95.5259 14.525 95.5666 14.5657 95.5666 14.6158C95.5666 14.6801 95.6316 14.7238 95.6877 14.6924C95.7243 14.672 95.759 14.6495 95.7916 14.625C95.8749 14.575 95.9583 14.5333 96.0416 14.5C96.2416 14.4 96.4666 14.325 96.7166 14.275C96.9666 14.2083 97.2333 14.175 97.5166 14.175L98.3166 14.125H98.8166C99.0928 14.125 99.3166 14.3489 99.3166 14.625V15.8C99.3166 16.0761 99.0928 16.3 98.8166 16.3H98.7609C98.7314 16.3 98.702 16.3026 98.673 16.3079C98.225 16.3912 97.8395 16.5135 97.5166 16.675C97.1833 16.8417 96.8999 17.05 96.6666 17.3C96.4499 17.55 96.2666 17.8167 96.1166 18.1C95.9833 18.3667 95.8749 18.6417 95.7916 18.925C95.7249 19.1417 95.6749 19.35 95.6416 19.55C95.6083 19.75 95.5916 19.9417 95.5916 20.125C95.5749 20.325 95.5666 20.5 95.5666 20.65C95.5666 20.8 95.5666 20.9417 95.5666 21.075V26.025C95.5666 26.3011 95.3428 26.525 95.0666 26.525H92.8916C92.6155 26.525 92.3916 26.3011 92.3916 26.025V15.025C92.3916 14.7489 92.6155 14.525 92.8916 14.525H95.4758Z" fill="#6DABAA"/>
<path d="M161.281 8.13995C156.419 4.2425 149.428 4.90541 145.069 9.38919L142.263 12.2751L147.245 17.399L150.134 14.4284C151.944 12.5666 154.844 12.2328 156.891 13.8113C158.187 14.8033 158.951 16.3669 158.951 18.0287C158.951 19.6906 158.188 21.2541 156.891 22.2462C154.844 23.8246 151.944 23.4897 150.134 21.629L146.801 18.2013L146.634 18.0287L141.651 12.9049L141.483 12.7323L135.607 6.68841C132.685 3.67788 128.715 1.99089 124.577 2.00004L112.981 5.67233C110.792 5.67576 112.202 7.77192 110.136 7.82107L109 18.5591L109.011 18.5442C109.143 23.1011 111.16 27.3826 114.556 30.3131C120.784 35.717 130.077 35.0598 135.844 29.1336L141.657 23.156L145.075 26.6717C149.434 31.1543 156.422 31.8184 161.284 27.9221C164.259 25.5516 166.001 21.8988 166 18.0287C166 14.1599 164.257 10.5081 161.281 8.13995ZM130.625 24.2475C128.189 26.7711 124.513 27.5301 121.318 26.17C118.124 24.8098 116.044 21.5993 116.055 18.0436V11.6717C116.055 10.3287 117.115 9.23947 118.42 9.23947H124.537C126.818 9.22118 129.009 10.1538 130.622 11.8122L136.667 18.0287L130.625 24.2475Z" fill="#A3A3A3"/>
<path d="M136.788 27.732L141.137 23.2175L137.19 18.6963L132.841 23.2107L136.788 27.732Z" fill="#A3A3A3"/>
<path d="M136.14 17.4223L135.533 18.0522L142.206 24.9773L142.813 24.3474L136.14 17.4223Z" fill="white"/>
<path d="M116 15.7618C116 15.7618 116.485 9.71029 123 9C123 9 119.146 9.51721 116 11.2831V16" fill="#A3A3A3"/>
<path d="M123.5 27C128.194 27 132 23.1944 132 18.5C132 13.8056 128.194 10 123.5 10C118.806 10 115 13.8056 115 18.5C115 23.1944 118.806 27 123.5 27Z" stroke="white" stroke-width="2.5" stroke-miterlimit="10"/>
<path d="M123.5 26C127.642 26 131 22.6421 131 18.5C131 14.3579 127.642 11 123.5 11C119.358 11 116 14.3579 116 18.5C116 22.6421 119.358 26 123.5 26Z" fill="#6DABAA" stroke="white" stroke-width="2" stroke-miterlimit="10"/>
<path d="M131.881 9.65796L132 14.1355C124.379 6.66488 109.882 11.9291 109.882 19.4609C109.882 31.1617 120.471 34 120.471 34C120.471 34 107 31.6319 107 19.0577C106.999 6.34836 125.36 4.54974 131.881 9.65796Z" fill="url(#paint0_linear_4034_1240)" stroke="white" stroke-width="0.5" stroke-miterlimit="10"/>
<path d="M131.779 3.63019L132 7.33379C122.67 1.04048 108.949 5.924 108.949 13.8961C108.949 26.281 123.818 27.6406 123.818 27.6406C123.818 27.6406 106 26.7786 106 13.4694C105.998 0.0170687 123.691 -1.29857 131.779 3.63019Z" fill="#83CDCA" stroke="white" stroke-width="0.5" stroke-miterlimit="10"/>
<path d="M122.837 29.2863C122.837 29.2863 125.624 30.5 127.588 29L128 32H122L122.837 29.2863Z" fill="#A3A3A3"/>
<path d="M136 19L130.027 24.7947C129.896 24.9218 129.756 25.0398 129.608 25.1466C128.72 25.7873 126.031 28.071 122 27.5C122 27.5 118.5 27.2014 118 26.9024L119.5 28.5L122 29H128.761L134.576 22.1688L136 19Z" fill="#A3A3A3"/>
<path d="M153.05 20.0697L152.798 19.1606H151.607L151.34 20.0697H150.232L151.605 15.4541H153.048L154.443 20.0697H153.05ZM151.839 18.1528H152.559L152.198 16.8142L151.839 18.1528Z" fill="#6DABAA"/>
<path d="M156.217 15.4556V20.0711H154.852V15.4556H156.217Z" fill="#6DABAA"/>
<defs>
<linearGradient id="paint0_linear_4034_1240" x1="106.999" y1="20.4997" x2="132" y2="20.4997" gradientUnits="userSpaceOnUse">
<stop stop-color="#6DABAA"/>
<stop offset="0.6536" stop-color="#83CDCA"/>
</linearGradient>
</defs>
</svg>
